<?xml version="1.0" encoding="utf-8"?>
<!-- Generator: Adobe Illustrator 16.0.0, SVG Export Plug-In . SVG Version: 6.00 Build 0)  -->
<!DOCTYPE svg PUBLIC "-//W3C//DTD SVG 1.1//EN" "http://www.w3.org/Graphics/SVG/1.1/DTD/svg11.dtd">
<svg version="1.1" id="Layer_1" xmlns="http://www.w3.org/2000/svg" xmlns:xlink="http://www.w3.org/1999/xlink" x="0px" y="0px"
	 width="595.279px" height="56.998px" viewBox="0 390.537 595.279 56.998" style="enable-background:new 0 390.537 595.279 56.998;"
	 xml:space="preserve">
<style type="text/css">
<![CDATA[
	.st0{fill:none;stroke:#fff;stroke-width:8;stroke-miterlimit:10;}
	.st1{fill:#C41022;}
    .st2{fill:#fff}
]]>
</style>
<title>logo</title>
<path class="st1" d="M292.349,424.478c-0.005,4.479-3.639,8.105-8.117,8.1c-4.473-0.004-8.097-3.629-8.101-8.1v-20.359h-3.876
	v20.359c-0.006,6.619,5.355,11.988,11.975,11.994s11.989-5.355,11.995-11.975c0-0.008,0-0.014,0-0.02v-20.359h-3.876V424.478z"/>
<path class="st1" d="M326.227,422.652c3.715-1.422,6.181-4.972,6.217-8.949c-0.098-5.419-4.562-9.738-9.98-9.657h-5.351l0,0h-3.876
	v32.409h3.876v-13.096h4.814l9.81,13.295h4.821L326.227,422.652z M317.118,407.922h5.352c3.192-0.153,5.904,2.312,6.058,5.504
	c0.152,3.193-2.312,5.905-5.505,6.058c-0.184,0.009-0.368,0.009-0.553,0h-5.352V407.922z"/>
<path class="st1" d="M241.307,436.562c-8.758,0-15.874-7.277-15.874-16.219c0-8.942,7.123-16.218,15.874-16.218
	s15.874,7.276,15.874,16.218C257.181,429.285,250.064,436.562,241.307,436.562z M241.307,407.968
	c-6.449,0-11.694,5.549-11.694,12.375s5.245,12.375,11.694,12.375S253,427.169,253,420.343S247.756,407.968,241.307,407.968z"/>
<polygon class="st1" points="204.035,411.288 198.883,404.119 189.332,404.119 201.416,420.932 201.416,436.562 209.175,436.562 
	209.175,425.814 209.175,418.432 "/>
<g id="_Groep_">
	<path class="st2" d="M137.728,426.699v5.994c-2.766,2.418-6.313,3.756-9.987,3.762c-8.599,0-15.557-7.209-15.557-16.072
		c0-8.863,6.979-16.066,15.557-16.066c3.675,0.007,7.222,1.344,9.987,3.764v5.986c-2.042-3.6-5.849-5.839-9.987-5.874
		c-6.442,0-11.681,5.47-11.681,12.19s5.238,12.197,11.681,12.197C131.881,432.544,135.689,430.302,137.728,426.699z"/>
</g>
<path class="st2" d="M88.069,408.709l-2.084-4.425l-0.053-0.112l-0.053,0.112l-2.09,4.425l-13.163,27.779h4.293l2.817-5.951H94.12l2.817,5.951
	h4.293L88.069,408.709z M79.57,426.673l6.355-13.44l6.356,13.44H79.57z"/>
<polygon class="st2" points="160.719,420.264 160.719,420.264 176.335,404.284 170.911,404.284 158.589,416.891 158.589,404.284 
	154.713,404.284 154.713,436.509 158.589,436.509 158.589,423.636 171.176,436.509 176.6,436.509 "/>
<rect class="st2" x="350.514" y="404.866" width="26.378" height="7.752"/>
<rect class="st2" x="350.514" y="419.635" width="13.89" height="7.759"/>
<path class="st2" d="M411.405,425.576c0,4.479-3.631,8.109-8.109,8.109s-8.108-3.631-8.108-8.109v-20.597h-3.876v20.597
	c-0.006,6.619,5.355,11.988,11.975,11.994s11.989-5.355,11.995-11.975c0-0.008,0-0.014,0-0.02v-20.597h-3.876V425.576z"/>
<path class="st2" d="M486.9,425.337c0,4.479-3.631,8.109-8.109,8.109s-8.109-3.631-8.109-8.109v-20.359h-3.876v20.359
	c-0.005,6.619,5.356,11.988,11.976,11.994s11.989-5.355,11.995-11.975c0-0.008,0-0.014,0-0.02v-20.359H486.9V425.337z"/>
<polygon class="st2" points="560.39,408.854 560.39,404.979 547.056,404.979 545.117,404.979 543.18,404.979 543.18,437.513 545.117,437.513 
	547.056,437.513 560.39,437.513 560.39,433.638 547.056,433.638 547.056,423.339 560.39,423.339 560.39,419.457 547.056,419.457 
	547.056,408.854 "/>
<polygon class="st2" points="429.74,408.854 439.138,408.854 439.138,437.513 443.014,437.513 443.014,408.854 452.419,408.854 452.419,404.979 
	429.74,404.979 "/>
<path class="st2" d="M520.811,423.505c3.715-1.422,6.181-4.972,6.217-8.95c-0.098-5.419-4.562-9.738-9.98-9.657h-5.352l0,0h-3.875v32.409h3.875
	v-13.09h4.815l9.81,13.262h4.802L520.811,423.505z M511.702,408.775h5.352c3.192-0.153,5.904,2.312,6.058,5.504
	c0.152,3.192-2.313,5.904-5.505,6.057c-0.185,0.009-0.369,0.009-0.553,0h-5.352V408.775z"/>
<line class="st0" x1="35.64" y1="404.045" x2="35.64" y2="436.455">
    <animateTransform id="move"
                      attributeName="transform"
                      attributeType="XML"
                      type="translate"
                      dur="1s"
                      values="0,6;0,-6;0,6"
                      repeatCount="indefinite"/>
    </line>
<line class="st0" x1="54.64" y1="403.951" x2="54.64" y2="436.361">
    <animateTransform id="move"
                      attributeName="transform"
                      attributeType="XML"
                      type="translate"
                      begin=".2"
                      dur="1s"
                      values="0,6;0,-6;0,6"
                      repeatCount="indefinite"/>
    </line>
</svg>
